  0
SECTION
  2
HEADER
  9
$ACADVER
  1
AC1014
  9
$HANDSEED
  5
FFFF
  9
$MEASUREMENT
 70
     1
  0
ENDSEC
  0
SECTION
  2
TABLES
  0
TABLE
  2
VPORT
  5
8
330
0
100
AcDbSymbolTable
 70
     4
  0
VPORT
  5
2E
330
8
100
AcDbSymbolTableRecord
100
AcDbViewportTableRecord
  2
*ACTIVE
 70
     0
 10
0.0
 20
0.0
 11
1.0
 21
1.0
 12
210.0
 22
148.5
 13
0.0
 23
0.0
 14
10.0
 24
10.0
 15
10.0
 25
10.0
 16
0.0
 26
0.0
 36
1.0
 17
0.0
 27
0.0
 37
0.0
 40
341.0
 41
1.24
 42
50.0
 43
0.0
 44
0.0
 50
0.0
 51
0.0
 71
     0
 72
   100
 73
     1
 74
     3
 75
     0
 76
     0
 77
     0
 78
     0
  0
ENDTAB
  0
TABLE
  2
LTYPE
  5
5
330
0
100
AcDbSymbolTable
 70
     1
  0
LTYPE
  5
14
330
5
100
AcDbSymbolTableRecord
100
AcDbLinetypeTableRecord
  2
BYBLOCK
 70
     0
  3

 72
    65
 73
     0
 40
0.0
  0
LTYPE
  5
15
330
5
100
AcDbSymbolTableRecord
100
AcDbLinetypeTableRecord
  2
BYLAYER
 70
     0
  3

 72
    65
 73
     0
 40
0.0
  0
LTYPE
  5
16
330
5
100
AcDbSymbolTableRecord
100
AcDbLinetypeTableRecord
  2
CONTINUOUS
 70
     0
  3
Solid line
 72
    65
 73
     0
 40
0.0
  0
ENDTAB
  0
TABLE
  2
LAYER
  5
2
100
AcDbSymbolTable
 70
1
  0
LAYER
  5
50
100
AcDbSymbolTableRecord
100
AcDbLayerTableRecord
  2
0
 70
0
  6
CONTINUOUS
  0
ENDTAB
  0
TABLE
  2
STYLE
  5
3
330
0
100
AcDbSymbolTable
 70
     1
  0
STYLE
  5
11
330
3
100
AcDbSymbolTableRecord
100
AcDbTextStyleTableRecord
  2
STANDARD
 70
     0
 40
0.0
 41
1.0
 50
0.0
 71
     0
 42
2.5
  3
txt
  4

  0
ENDTAB
  0
TABLE
  2
VIEW
  5
6
330
0
100
AcDbSymbolTable
 70
     0
  0
ENDTAB
  0
TABLE
  2
UCS
  5
7
330
0
100
AcDbSymbolTable
 70
     0
  0
ENDTAB
  0
TABLE
  2
APPID
  5
9
330
0
100
AcDbSymbolTable
 70
     2
  0
APPID
  5
12
330
9
100
AcDbSymbolTableRecord
100
AcDbRegAppTableRecord
  2
ACAD
 70
     0
  0
ENDTAB
  0
TABLE
  2
DIMSTYLE
  5
A
330
0
100
AcDbSymbolTable
 70
     1
  0
DIMSTYLE
105
27
330
A
100
AcDbSymbolTableRecord
100
AcDbDimStyleTableRecord
  2
ISO-25
 70
     0
  3

  4

  5

  6

  7

 40
1.0
 41
2.5
 42
0.625
 43
3.75
 44
1.25
 45
0.0
 46
0.0
 47
0.0
 48
0.0
140
2.5
141
2.5
142
0.0
143
0.03937007874016
144
1.0
145
0.0
146
1.0
147
0.625
 71
     0
 72
     0
 73
     0
 74
     0
 75
     0
 76
     0
 77
     1
 78
     8
170
     0
171
     3
172
     1
173
     0
174
     0
175
     0
176
     0
177
     0
178
     0
270
     2
271
     2
272
     2
273
     2
274
     3
340
11
275
     0
280
     0
281
     0
282
     0
283
     0
284
     8
285
     0
286
     0
287
     3
288
     0
  0
ENDTAB
  0
TABLE
  2
BLOCK_RECORD
  5
1
330
0
100
AcDbSymbolTable
 70
     1
  0
BLOCK_RECORD
  5
1F
330
1
100
AcDbSymbolTableRecord
100
AcDbBlockTableRecord
  2
*MODEL_SPACE
  0
BLOCK_RECORD
  5
1B
330
1
100
AcDbSymbolTableRecord
100
AcDbBlockTableRecord
  2
*PAPER_SPACE
  0
ENDTAB
  0
ENDSEC
  0
SECTION
  2
BLOCKS
  0
BLOCK
  5
20
330
1F
100
AcDbEntity
  8
0
100
AcDbBlockBegin
  2
*MODEL_SPACE
 70
     0
 10
0.0
 20
0.0
 30
0.0
  3
*MODEL_SPACE
  1

  0
ENDBLK
  5
21
330
1F
100
AcDbEntity
  8
0
100
AcDbBlockEnd
  0
BLOCK
  5
1C
330
1B
100
AcDbEntity
 67
     1
  8
0
100
AcDbBlockBegin
  2
*PAPER_SPACE
  1

  0
ENDBLK
  5
1D
330
1B
100
AcDbEntity
 67
     1
  8
0
100
AcDbBlockEnd
  0
ENDSEC
  0
SECTION
  2
ENTITIES
  0
SPLINE
  5
100
100
AcDbEntity
  8
0
 62
1
100
AcDbSpline
 70
8
 71
3
 72
8
 73
4
 74
0
 40
0
 40
0
 40
0
 40
0
 40
1
 40
1
 40
1
 40
1
 10
15.542980
 20
81.427335
 30
0.0
 10
15.542980
 20
80.140375
 30
0.0
 10
15.031737
 20
78.906125
 30
0.0
 10
14.121719
 20
77.996106
 30
0.0
  0
SPLINE
  5
101
100
AcDbEntity
  8
0
 62
1
100
AcDbSpline
 70
8
 71
3
 72
8
 73
4
 74
0
 40
0
 40
0
 40
0
 40
0
 40
1
 40
1
 40
1
 40
1
 10
14.121719
 20
77.996106
 30
0.0
 10
13.211700
 20
77.086087
 30
0.0
 10
11.977450
 20
76.574844
 30
0.0
 10
10.690489
 20
76.574844
 30
0.0
  0
SPLINE
  5
102
100
AcDbEntity
  8
0
 62
1
100
AcDbSpline
 70
8
 71
3
 72
8
 73
4
 74
0
 40
0
 40
0
 40
0
 40
0
 40
1
 40
1
 40
1
 40
1
 10
10.690489
 20
76.574844
 30
0.0
 10
9.403529
 20
76.574844
 30
0.0
 10
8.169279
 20
77.086087
 30
0.0
 10
7.259260
 20
77.996106
 30
0.0
  0
SPLINE
  5
103
100
AcDbEntity
  8
0
 62
1
100
AcDbSpline
 70
8
 71
3
 72
8
 73
4
 74
0
 40
0
 40
0
 40
0
 40
0
 40
1
 40
1
 40
1
 40
1
 10
7.259260
 20
77.996106
 30
0.0
 10
6.349241
 20
78.906125
 30
0.0
 10
5.837998
 20
80.140375
 30
0.0
 10
5.837998
 20
81.427335
 30
0.0
  0
SPLINE
  5
104
100
AcDbEntity
  8
0
 62
1
100
AcDbSpline
 70
8
 71
3
 72
8
 73
4
 74
0
 40
0
 40
0
 40
0
 40
0
 40
1
 40
1
 40
1
 40
1
 10
5.837998
 20
81.427335
 30
0.0
 10
5.837998
 20
82.714296
 30
0.0
 10
6.349241
 20
83.948546
 30
0.0
 10
7.259260
 20
84.858565
 30
0.0
  0
SPLINE
  5
105
100
AcDbEntity
  8
0
 62
1
100
AcDbSpline
 70
8
 71
3
 72
8
 73
4
 74
0
 40
0
 40
0
 40
0
 40
0
 40
1
 40
1
 40
1
 40
1
 10
7.259260
 20
84.858565
 30
0.0
 10
8.169279
 20
85.768583
 30
0.0
 10
9.403529
 20
86.279826
 30
0.0
 10
10.690489
 20
86.279826
 30
0.0
  0
SPLINE
  5
106
100
AcDbEntity
  8
0
 62
1
100
AcDbSpline
 70
8
 71
3
 72
8
 73
4
 74
0
 40
0
 40
0
 40
0
 40
0
 40
1
 40
1
 40
1
 40
1
 10
10.690489
 20
86.279826
 30
0.0
 10
11.977450
 20
86.279826
 30
0.0
 10
13.211700
 20
85.768583
 30
0.0
 10
14.121719
 20
84.858565
 30
0.0
  0
SPLINE
  5
107
100
AcDbEntity
  8
0
 62
1
100
AcDbSpline
 70
8
 71
3
 72
8
 73
4
 74
0
 40
0
 40
0
 40
0
 40
0
 40
1
 40
1
 40
1
 40
1
 10
14.121719
 20
84.858565
 30
0.0
 10
15.031737
 20
83.948546
 30
0.0
 10
15.542980
 20
82.714296
 30
0.0
 10
15.542980
 20
81.427335
 30
0.0
  0
LINE
  5
108
100
AcDbEntity
  8
0
 62
1
100
AcDbLine
 10
15.542980
 20
81.427335
 30
0.0
 11
15.542980
 21
81.427335
 31
0.0
  0
SPLINE
  5
109
100
AcDbEntity
  8
0
 62
1
100
AcDbSpline
 70
8
 71
3
 72
8
 73
4
 74
0
 40
0
 40
0
 40
0
 40
0
 40
1
 40
1
 40
1
 40
1
 10
42.255310
 20
81.427335
 30
0.0
 10
42.255310
 20
78.747379
 30
0.0
 10
40.082777
 20
76.574845
 30
0.0
 10
37.402820
 20
76.574844
 30
0.0
  0
SPLINE
  5
10a
100
AcDbEntity
  8
0
 62
1
100
AcDbSpline
 70
8
 71
3
 72
8
 73
4
 74
0
 40
0
 40
0
 40
0
 40
0
 40
1
 40
1
 40
1
 40
1
 10
37.402820
 20
76.574844
 30
0.0
 10
34.722864
 20
76.574845
 30
0.0
 10
32.550330
 20
78.747379
 30
0.0
 10
32.550330
 20
81.427335
 30
0.0
  0
SPLINE
  5
10b
100
AcDbEntity
  8
0
 62
1
100
AcDbSpline
 70
8
 71
3
 72
8
 73
4
 74
0
 40
0
 40
0
 40
0
 40
0
 40
1
 40
1
 40
1
 40
1
 10
32.550330
 20
81.427335
 30
0.0
 10
32.550330
 20
84.107292
 30
0.0
 10
34.722864
 20
86.279826
 30
0.0
 10
37.402820
 20
86.279826
 30
0.0
  0
SPLINE
  5
10c
100
AcDbEntity
  8
0
 62
1
100
AcDbSpline
 70
8
 71
3
 72
8
 73
4
 74
0
 40
0
 40
0
 40
0
 40
0
 40
1
 40
1
 40
1
 40
1
 10
37.402820
 20
86.279826
 30
0.0
 10
40.082777
 20
86.279826
 30
0.0
 10
42.255310
 20
84.107292
 30
0.0
 10
42.255310
 20
81.427335
 30
0.0
  0
LINE
  5
10d
100
AcDbEntity
  8
0
 62
1
100
AcDbLine
 10
42.255310
 20
81.427335
 30
0.0
 11
42.255310
 21
81.427335
 31
0.0
  0
SPLINE
  5
10e
100
AcDbEntity
  8
0
 62
1
100
AcDbSpline
 70
8
 71
3
 72
8
 73
4
 74
0
 40
0
 40
0
 40
0
 40
0
 40
1
 40
1
 40
1
 40
1
 10
59.662081
 20
81.385002
 30
0.0
 10
59.662081
 20
80.724721
 30
0.0
 10
59.399785
 20
80.091483
 30
0.0
 10
58.932896
 20
79.624594
 30
0.0
  0
SPLINE
  5
10f
100
AcDbEntity
  8
0
 62
1
100
AcDbSpline
 70
8
 71
3
 72
8
 73
4
 74
0
 40
0
 40
0
 40
0
 40
0
 40
1
 40
1
 40
1
 40
1
 10
58.932896
 20
79.624594
 30
0.0
 10
58.466006
 20
79.157704
 30
0.0
 10
57.832768
 20
78.895409
 30
0.0
 10
57.172487
 20
78.895409
 30
0.0
  0
SPLINE
  5
110
100
AcDbEntity
  8
0
 62
1
100
AcDbSpline
 70
8
 71
3
 72
8
 73
4
 74
0
 40
0
 40
0
 40
0
 40
0
 40
1
 40
1
 40
1
 40
1
 10
57.172487
 20
78.895409
 30
0.0
 10
55.797523
 20
78.895410
 30
0.0
 10
54.682895
 20
80.010038
 30
0.0
 10
54.682895
 20
81.385002
 30
0.0
  0
SPLINE
  5
111
100
AcDbEntity
  8
0
 62
1
100
AcDbSpline
 70
8
 71
3
 72
8
 73
4
 74
0
 40
0
 40
0
 40
0
 40
0
 40
1
 40
1
 40
1
 40
1
 10
54.682895
 20
81.385002
 30
0.0
 10
54.682895
 20
82.759966
 30
0.0
 10
55.797523
 20
83.874594
 30
0.0
 10
57.172487
 20
83.874595
 30
0.0
  0
SPLINE
  5
112
100
AcDbEntity
  8
0
 62
1
100
AcDbSpline
 70
8
 71
3
 72
8
 73
4
 74
0
 40
0
 40
0
 40
0
 40
0
 40
1
 40
1
 40
1
 40
1
 10
57.172487
 20
83.874595
 30
0.0
 10
57.832768
 20
83.874595
 30
0.0
 10
58.466006
 20
83.612300
 30
0.0
 10
58.932896
 20
83.145410
 30
0.0
  0
SPLINE
  5
113
100
AcDbEntity
  8
0
 62
1
100
AcDbSpline
 70
8
 71
3
 72
8
 73
4
 74
0
 40
0
 40
0
 40
0
 40
0
 40
1
 40
1
 40
1
 40
1
 10
58.932896
 20
83.145410
 30
0.0
 10
59.399785
 20
82.678521
 30
0.0
 10
59.662081
 20
82.045283
 30
0.0
 10
59.662081
 20
81.385002
 30
0.0
  0
LINE
  5
114
100
AcDbEntity
  8
0
 62
1
100
AcDbLine
 10
59.662081
 20
81.385002
 30
0.0
 11
59.662081
 21
81.385002
 31
0.0
  0
SPLINE
  5
115
100
AcDbEntity
  8
0
 62
1
100
AcDbSpline
 70
8
 71
3
 72
8
 73
4
 74
0
 40
0
 40
0
 40
0
 40
0
 40
1
 40
1
 40
1
 40
1
 10
53.213638
 20
72.622669
 30
0.0
 10
53.213638
 20
71.359149
 30
0.0
 10
52.189353
 20
70.334863
 30
0.0
 10
50.925833
 20
70.334862
 30
0.0
  0
SPLINE
  5
116
100
AcDbEntity
  8
0
 62
1
100
AcDbSpline
 70
8
 71
3
 72
8
 73
4
 74
0
 40
0
 40
0
 40
0
 40
0
 40
1
 40
1
 40
1
 40
1
 10
50.925833
 20
70.334862
 30
0.0
 10
50.319069
 20
70.334862
 30
0.0
 10
49.737156
 20
70.575898
 30
0.0
 10
49.308109
 20
71.004945
 30
0.0
  0
SPLINE
  5
117
100
AcDbEntity
  8
0
 62
1
100
AcDbSpline
 70
8
 71
3
 72
8
 73
4
 74
0
 40
0
 40
0
 40
0
 40
0
 40
1
 40
1
 40
1
 40
1
 10
49.308109
 20
71.004945
 30
0.0
 10
48.879062
 20
71.433992
 30
0.0
 10
48.638026
 20
72.015905
 30
0.0
 10
48.638026
 20
72.622669
 30
0.0
  0
SPLINE
  5
118
100
AcDbEntity
  8
0
 62
1
100
AcDbSpline
 70
8
 71
3
 72
8
 73
4
 74
0
 40
0
 40
0
 40
0
 40
0
 40
1
 40
1
 40
1
 40
1
 10
48.638026
 20
72.622669
 30
0.0
 10
48.638026
 20
73.229433
 30
0.0
 10
48.879062
 20
73.811346
 30
0.0
 10
49.308109
 20
74.240393
 30
0.0
  0
SPLINE
  5
119
100
AcDbEntity
  8
0
 62
1
100
AcDbSpline
 70
8
 71
3
 72
8
 73
4
 74
0
 40
0
 40
0
 40
0
 40
0
 40
1
 40
1
 40
1
 40
1
 10
49.308109
 20
74.240393
 30
0.0
 10
49.737156
 20
74.669440
 30
0.0
 10
50.319069
 20
74.910476
 30
0.0
 10
50.925833
 20
74.910475
 30
0.0
  0
SPLINE
  5
11a
100
AcDbEntity
  8
0
 62
1
100
AcDbSpline
 70
8
 71
3
 72
8
 73
4
 74
0
 40
0
 40
0
 40
0
 40
0
 40
1
 40
1
 40
1
 40
1
 10
50.925833
 20
74.910475
 30
0.0
 10
52.189353
 20
74.910474
 30
0.0
 10
53.213638
 20
73.886189
 30
0.0
 10
53.213638
 20
72.622669
 30
0.0
  0
LINE
  5
11b
100
AcDbEntity
  8
0
 62
1
100
AcDbLine
 10
53.213638
 20
72.622669
 30
0.0
 11
53.213638
 21
72.622669
 31
0.0
  0
SPLINE
  5
11c
100
AcDbEntity
  8
0
 62
1
100
AcDbSpline
 70
8
 71
3
 72
8
 73
4
 74
0
 40
0
 40
0
 40
0
 40
0
 40
1
 40
1
 40
1
 40
1
 10
26.543810
 20
72.622669
 30
0.0
 10
26.543810
 20
71.359149
 30
0.0
 10
25.519525
 20
70.334863
 30
0.0
 10
24.256005
 20
70.334862
 30
0.0
  0
SPLINE
  5
11d
100
AcDbEntity
  8
0
 62
1
100
AcDbSpline
 70
8
 71
3
 72
8
 73
4
 74
0
 40
0
 40
0
 40
0
 40
0
 40
1
 40
1
 40
1
 40
1
 10
24.256005
 20
70.334862
 30
0.0
 10
23.649241
 20
70.334862
 30
0.0
 10
23.067328
 20
70.575898
 30
0.0
 10
22.638281
 20
71.004945
 30
0.0
  0
SPLINE
  5
11e
100
AcDbEntity
  8
0
 62
1
100
AcDbSpline
 70
8
 71
3
 72
8
 73
4
 74
0
 40
0
 40
0
 40
0
 40
0
 40
1
 40
1
 40
1
 40
1
 10
22.638281
 20
71.004945
 30
0.0
 10
22.209234
 20
71.433993
 30
0.0
 10
21.968199
 20
72.015905
 30
0.0
 10
21.968199
 20
72.622669
 30
0.0
  0
SPLINE
  5
11f
100
AcDbEntity
  8
0
 62
1
100
AcDbSpline
 70
8
 71
3
 72
8
 73
4
 74
0
 40
0
 40
0
 40
0
 40
0
 40
1
 40
1
 40
1
 40
1
 10
21.968199
 20
72.622669
 30
0.0
 10
21.968199
 20
73.229433
 30
0.0
 10
22.209235
 20
73.811346
 30
0.0
 10
22.638282
 20
74.240392
 30
0.0
  0
SPLINE
  5
120
100
AcDbEntity
  8
0
 62
1
100
AcDbSpline
 70
8
 71
3
 72
8
 73
4
 74
0
 40
0
 40
0
 40
0
 40
0
 40
1
 40
1
 40
1
 40
1
 10
22.638282
 20
74.240392
 30
0.0
 10
23.067329
 20
74.669439
 30
0.0
 10
23.649241
 20
74.910475
 30
0.0
 10
24.256005
 20
74.910475
 30
0.0
  0
SPLINE
  5
121
100
AcDbEntity
  8
0
 62
1
100
AcDbSpline
 70
8
 71
3
 72
8
 73
4
 74
0
 40
0
 40
0
 40
0
 40
0
 40
1
 40
1
 40
1
 40
1
 10
24.256005
 20
74.910475
 30
0.0
 10
25.519525
 20
74.910475
 30
0.0
 10
26.543810
 20
73.886189
 30
0.0
 10
26.543810
 20
72.622669
 30
0.0
  0
LINE
  5
122
100
AcDbEntity
  8
0
 62
1
100
AcDbLine
 10
26.543810
 20
72.622669
 30
0.0
 11
26.543810
 21
72.622669
 31
0.0
  0
SPLINE
  5
123
100
AcDbEntity
  8
0
 62
1
100
AcDbSpline
 70
8
 71
3
 72
8
 73
4
 74
0
 40
0
 40
0
 40
0
 40
0
 40
1
 40
1
 40
1
 40
1
 10
15.825609
 20
61.068818
 30
0.0
 10
15.825609
 20
60.144846
 30
0.0
 10
15.458563
 20
59.258718
 30
0.0
 10
14.805216
 20
58.605371
 30
0.0
  0
SPLINE
  5
124
100
AcDbEntity
  8
0
 62
1
100
AcDbSpline
 70
8
 71
3
 72
8
 73
4
 74
0
 40
0
 40
0
 40
0
 40
0
 40
1
 40
1
 40
1
 40
1
 10
14.805216
 20
58.605371
 30
0.0
 10
14.151869
 20
57.952024
 30
0.0
 10
13.265741
 20
57.584978
 30
0.0
 10
12.341769
 20
57.584978
 30
0.0
  0
SPLINE
  5
125
100
AcDbEntity
  8
0
 62
1
100
AcDbSpline
 70
8
 71
3
 72
8
 73
4
 74
0
 40
0
 40
0
 40
0
 40
0
 40
1
 40
1
 40
1
 40
1
 10
12.341769
 20
57.584978
 30
0.0
 10
11.417797
 20
57.584978
 30
0.0
 10
10.531669
 20
57.952024
 30
0.0
 10
9.878322
 20
58.605371
 30
0.0
  0
SPLINE
  5
126
100
AcDbEntity
  8
0
 62
1
100
AcDbSpline
 70
8
 71
3
 72
8
 73
4
 74
0
 40
0
 40
0
 40
0
 40
0
 40
1
 40
1
 40
1
 40
1
 10
9.878322
 20
58.605371
 30
0.0
 10
9.224976
 20
59.258718
 30
0.0
 10
8.857929
 20
60.144846
 30
0.0
 10
8.857929
 20
61.068818
 30
0.0
  0
SPLINE
  5
127
100
AcDbEntity
  8
0
 62
1
100
AcDbSpline
 70
8
 71
3
 72
8
 73
4
 74
0
 40
0
 40
0
 40
0
 40
0
 40
1
 40
1
 40
1
 40
1
 10
8.857929
 20
61.068818
 30
0.0
 10
8.857929
 20
61.992790
 30
0.0
 10
9.224976
 20
62.878918
 30
0.0
 10
9.878322
 20
63.532265
 30
0.0
  0
SPLINE
  5
128
100
AcDbEntity
  8
0
 62
1
100
AcDbSpline
 70
8
 71
3
 72
8
 73
4
 74
0
 40
0
 40
0
 40
0
 40
0
 40
1
 40
1
 40
1
 40
1
 10
9.878322
 20
63.532265
 30
0.0
 10
10.531669
 20
64.185612
 30
0.0
 10
11.417797
 20
64.552658
 30
0.0
 10
12.341769
 20
64.552658
 30
0.0
  0
SPLINE
  5
129
100
AcDbEntity
  8
0
 62
1
100
AcDbSpline
 70
8
 71
3
 72
8
 73
4
 74
0
 40
0
 40
0
 40
0
 40
0
 40
1
 40
1
 40
1
 40
1
 10
12.341769
 20
64.552658
 30
0.0
 10
13.265741
 20
64.552658
 30
0.0
 10
14.151869
 20
64.185612
 30
0.0
 10
14.805216
 20
63.532265
 30
0.0
  0
SPLINE
  5
12a
100
AcDbEntity
  8
0
 62
1
100
AcDbSpline
 70
8
 71
3
 72
8
 73
4
 74
0
 40
0
 40
0
 40
0
 40
0
 40
1
 40
1
 40
1
 40
1
 10
14.805216
 20
63.532265
 30
0.0
 10
15.458563
 20
62.878918
 30
0.0
 10
15.825609
 20
61.992790
 30
0.0
 10
15.825609
 20
61.068818
 30
0.0
  0
LINE
  5
12b
100
AcDbEntity
  8
0
 62
1
100
AcDbLine
 10
15.825609
 20
61.068818
 30
0.0
 11
15.825609
 21
61.068818
 31
0.0
  0
SPLINE
  5
12c
100
AcDbEntity
  8
0
 62
1
100
AcDbSpline
 70
8
 71
3
 72
8
 73
4
 74
0
 40
0
 40
0
 40
0
 40
0
 40
1
 40
1
 40
1
 40
1
 10
43.426944
 20
61.068815
 30
0.0
 10
43.426944
 20
60.144843
 30
0.0
 10
43.059897
 20
59.258715
 30
0.0
 10
42.406550
 20
58.605368
 30
0.0
  0
SPLINE
  5
12d
100
AcDbEntity
  8
0
 62
1
100
AcDbSpline
 70
8
 71
3
 72
8
 73
4
 74
0
 40
0
 40
0
 40
0
 40
0
 40
1
 40
1
 40
1
 40
1
 10
42.406550
 20
58.605368
 30
0.0
 10
41.753204
 20
57.952021
 30
0.0
 10
40.867075
 20
57.584975
 30
0.0
 10
39.943103
 20
57.584975
 30
0.0
  0
SPLINE
  5
12e
100
AcDbEntity
  8
0
 62
1
100
AcDbSpline
 70
8
 71
3
 72
8
 73
4
 74
0
 40
0
 40
0
 40
0
 40
0
 40
1
 40
1
 40
1
 40
1
 10
39.943103
 20
57.584975
 30
0.0
 10
38.019033
 20
57.584976
 30
0.0
 10
36.459266
 20
59.144744
 30
0.0
 10
36.459266
 20
61.068815
 30
0.0
  0
SPLINE
  5
12f
100
AcDbEntity
  8
0
 62
1
100
AcDbSpline
 70
8
 71
3
 72
8
 73
4
 74
0
 40
0
 40
0
 40
0
 40
0
 40
1
 40
1
 40
1
 40
1
 10
36.459266
 20
61.068815
 30
0.0
 10
36.459266
 20
62.992886
 30
0.0
 10
38.019033
 20
64.552654
 30
0.0
 10
39.943103
 20
64.552655
 30
0.0
  0
SPLINE
  5
130
100
AcDbEntity
  8
0
 62
1
100
AcDbSpline
 70
8
 71
3
 72
8
 73
4
 74
0
 40
0
 40
0
 40
0
 40
0
 40
1
 40
1
 40
1
 40
1
 10
39.943103
 20
64.552655
 30
0.0
 10
40.867075
 20
64.552655
 30
0.0
 10
41.753204
 20
64.185609
 30
0.0
 10
42.406550
 20
63.532262
 30
0.0
  0
SPLINE
  5
131
100
AcDbEntity
  8
0
 62
1
100
AcDbSpline
 70
8
 71
3
 72
8
 73
4
 74
0
 40
0
 40
0
 40
0
 40
0
 40
1
 40
1
 40
1
 40
1
 10
42.406550
 20
63.532262
 30
0.0
 10
43.059897
 20
62.878915
 30
0.0
 10
43.426944
 20
61.992787
 30
0.0
 10
43.426944
 20
61.068815
 30
0.0
  0
LINE
  5
132
100
AcDbEntity
  8
0
 62
1
100
AcDbLine
 10
43.426944
 20
61.068815
 30
0.0
 11
43.426944
 21
61.068815
 31
0.0
  0
SPLINE
  5
133
100
AcDbEntity
  8
0
 62
1
100
AcDbSpline
 70
8
 71
3
 72
8
 73
4
 74
0
 40
0
 40
0
 40
0
 40
0
 40
1
 40
1
 40
1
 40
1
 10
15.825609
 20
38.208828
 30
0.0
 10
15.825609
 20
37.284857
 30
0.0
 10
15.458563
 20
36.398728
 30
0.0
 10
14.805216
 20
35.745381
 30
0.0
  0
SPLINE
  5
134
100
AcDbEntity
  8
0
 62
1
100
AcDbSpline
 70
8
 71
3
 72
8
 73
4
 74
0
 40
0
 40
0
 40
0
 40
0
 40
1
 40
1
 40
1
 40
1
 10
14.805216
 20
35.745381
 30
0.0
 10
14.151869
 20
35.092035
 30
0.0
 10
13.265741
 20
34.724988
 30
0.0
 10
12.341769
 20
34.724988
 30
0.0
  0
SPLINE
  5
135
100
AcDbEntity
  8
0
 62
1
100
AcDbSpline
 70
8
 71
3
 72
8
 73
4
 74
0
 40
0
 40
0
 40
0
 40
0
 40
1
 40
1
 40
1
 40
1
 10
12.341769
 20
34.724988
 30
0.0
 10
11.417797
 20
34.724988
 30
0.0
 10
10.531669
 20
35.092035
 30
0.0
 10
9.878322
 20
35.745381
 30
0.0
  0
SPLINE
  5
136
100
AcDbEntity
  8
0
 62
1
100
AcDbSpline
 70
8
 71
3
 72
8
 73
4
 74
0
 40
0
 40
0
 40
0
 40
0
 40
1
 40
1
 40
1
 40
1
 10
9.878322
 20
35.745381
 30
0.0
 10
9.224976
 20
36.398728
 30
0.0
 10
8.857929
 20
37.284857
 30
0.0
 10
8.857929
 20
38.208828
 30
0.0
  0
SPLINE
  5
137
100
AcDbEntity
  8
0
 62
1
100
AcDbSpline
 70
8
 71
3
 72
8
 73
4
 74
0
 40
0
 40
0
 40
0
 40
0
 40
1
 40
1
 40
1
 40
1
 10
8.857929
 20
38.208828
 30
0.0
 10
8.857929
 20
39.132800
 30
0.0
 10
9.224976
 20
40.018929
 30
0.0
 10
9.878322
 20
40.672275
 30
0.0
  0
SPLINE
  5
138
100
AcDbEntity
  8
0
 62
1
100
AcDbSpline
 70
8
 71
3
 72
8
 73
4
 74
0
 40
0
 40
0
 40
0
 40
0
 40
1
 40
1
 40
1
 40
1
 10
9.878322
 20
40.672275
 30
0.0
 10
10.531669
 20
41.325622
 30
0.0
 10
11.417797
 20
41.692669
 30
0.0
 10
12.341769
 20
41.692669
 30
0.0
  0
SPLINE
  5
139
100
AcDbEntity
  8
0
 62
1
100
AcDbSpline
 70
8
 71
3
 72
8
 73
4
 74
0
 40
0
 40
0
 40
0
 40
0
 40
1
 40
1
 40
1
 40
1
 10
12.341769
 20
41.692669
 30
0.0
 10
13.265741
 20
41.692669
 30
0.0
 10
14.151869
 20
41.325622
 30
0.0
 10
14.805216
 20
40.672275
 30
0.0
  0
SPLINE
  5
13a
100
AcDbEntity
  8
0
 62
1
100
AcDbSpline
 70
8
 71
3
 72
8
 73
4
 74
0
 40
0
 40
0
 40
0
 40
0
 40
1
 40
1
 40
1
 40
1
 10
14.805216
 20
40.672275
 30
0.0
 10
15.458563
 20
40.018929
 30
0.0
 10
15.825609
 20
39.132800
 30
0.0
 10
15.825609
 20
38.208828
 30
0.0
  0
LINE
  5
13b
100
AcDbEntity
  8
0
 62
1
100
AcDbLine
 10
15.825609
 20
38.208828
 30
0.0
 11
15.825609
 21
38.208828
 31
0.0
  0
SPLINE
  5
13c
100
AcDbEntity
  8
0
 62
1
100
AcDbSpline
 70
8
 71
3
 72
8
 73
4
 74
0
 40
0
 40
0
 40
0
 40
0
 40
1
 40
1
 40
1
 40
1
 10
43.426944
 20
38.208828
 30
0.0
 10
43.426944
 20
37.284857
 30
0.0
 10
43.059897
 20
36.398728
 30
0.0
 10
42.406550
 20
35.745381
 30
0.0
  0
SPLINE
  5
13d
100
AcDbEntity
  8
0
 62
1
100
AcDbSpline
 70
8
 71
3
 72
8
 73
4
 74
0
 40
0
 40
0
 40
0
 40
0
 40
1
 40
1
 40
1
 40
1
 10
42.406550
 20
35.745381
 30
0.0
 10
41.753204
 20
35.092035
 30
0.0
 10
40.867075
 20
34.724988
 30
0.0
 10
39.943103
 20
34.724988
 30
0.0
  0
SPLINE
  5
13e
100
AcDbEntity
  8
0
 62
1
100
AcDbSpline
 70
8
 71
3
 72
8
 73
4
 74
0
 40
0
 40
0
 40
0
 40
0
 40
1
 40
1
 40
1
 40
1
 10
39.943103
 20
34.724988
 30
0.0
 10
38.019033
 20
34.724990
 30
0.0
 10
36.459266
 20
36.284758
 30
0.0
 10
36.459266
 20
38.208828
 30
0.0
  0
SPLINE
  5
13f
100
AcDbEntity
  8
0
 62
1
100
AcDbSpline
 70
8
 71
3
 72
8
 73
4
 74
0
 40
0
 40
0
 40
0
 40
0
 40
1
 40
1
 40
1
 40
1
 10
36.459266
 20
38.208828
 30
0.0
 10
36.459266
 20
40.132899
 30
0.0
 10
38.019033
 20
41.692667
 30
0.0
 10
39.943103
 20
41.692669
 30
0.0
  0
SPLINE
  5
140
100
AcDbEntity
  8
0
 62
1
100
AcDbSpline
 70
8
 71
3
 72
8
 73
4
 74
0
 40
0
 40
0
 40
0
 40
0
 40
1
 40
1
 40
1
 40
1
 10
39.943103
 20
41.692669
 30
0.0
 10
40.867075
 20
41.692669
 30
0.0
 10
41.753204
 20
41.325622
 30
0.0
 10
42.406550
 20
40.672276
 30
0.0
  0
SPLINE
  5
141
100
AcDbEntity
  8
0
 62
1
100
AcDbSpline
 70
8
 71
3
 72
8
 73
4
 74
0
 40
0
 40
0
 40
0
 40
0
 40
1
 40
1
 40
1
 40
1
 10
42.406550
 20
40.672276
 30
0.0
 10
43.059897
 20
40.018929
 30
0.0
 10
43.426944
 20
39.132800
 30
0.0
 10
43.426944
 20
38.208828
 30
0.0
  0
LINE
  5
142
100
AcDbEntity
  8
0
 62
1
100
AcDbLine
 10
43.426944
 20
38.208828
 30
0.0
 11
43.426944
 21
38.208828
 31
0.0
  0
SPLINE
  5
143
100
AcDbEntity
  8
0
 62
1
100
AcDbSpline
 70
8
 71
3
 72
8
 73
4
 74
0
 40
0
 40
0
 40
0
 40
0
 40
1
 40
1
 40
1
 40
1
 10
15.542980
 20
16.657333
 30
0.0
 10
15.542980
 20
13.977377
 30
0.0
 10
13.370446
 20
11.804843
 30
0.0
 10
10.690489
 20
11.804843
 30
0.0
  0
SPLINE
  5
144
100
AcDbEntity
  8
0
 62
1
100
AcDbSpline
 70
8
 71
3
 72
8
 73
4
 74
0
 40
0
 40
0
 40
0
 40
0
 40
1
 40
1
 40
1
 40
1
 10
10.690489
 20
11.804843
 30
0.0
 10
8.010533
 20
11.804843
 30
0.0
 10
5.837999
 20
13.977377
 30
0.0
 10
5.837998
 20
16.657333
 30
0.0
  0
SPLINE
  5
145
100
AcDbEntity
  8
0
 62
1
100
AcDbSpline
 70
8
 71
3
 72
8
 73
4
 74
0
 40
0
 40
0
 40
0
 40
0
 40
1
 40
1
 40
1
 40
1
 10
5.837998
 20
16.657333
 30
0.0
 10
5.837999
 20
19.337290
 30
0.0
 10
8.010533
 20
21.509823
 30
0.0
 10
10.690489
 20
21.509823
 30
0.0
  0
SPLINE
  5
146
100
AcDbEntity
  8
0
 62
1
100
AcDbSpline
 70
8
 71
3
 72
8
 73
4
 74
0
 40
0
 40
0
 40
0
 40
0
 40
1
 40
1
 40
1
 40
1
 10
10.690489
 20
21.509823
 30
0.0
 10
13.370446
 20
21.509823
 30
0.0
 10
15.542980
 20
19.337290
 30
0.0
 10
15.542980
 20
16.657333
 30
0.0
  0
LINE
  5
147
100
AcDbEntity
  8
0
 62
1
100
AcDbLine
 10
15.542980
 20
16.657333
 30
0.0
 11
15.542980
 21
16.657333
 31
0.0
  0
SPLINE
  5
148
100
AcDbEntity
  8
0
 62
1
100
AcDbSpline
 70
8
 71
3
 72
8
 73
4
 74
0
 40
0
 40
0
 40
0
 40
0
 40
1
 40
1
 40
1
 40
1
 10
42.255310
 20
16.657333
 30
0.0
 10
42.255310
 20
13.977377
 30
0.0
 10
40.082776
 20
11.804844
 30
0.0
 10
37.402820
 20
11.804843
 30
0.0
  0
SPLINE
  5
149
100
AcDbEntity
  8
0
 62
1
100
AcDbSpline
 70
8
 71
3
 72
8
 73
4
 74
0
 40
0
 40
0
 40
0
 40
0
 40
1
 40
1
 40
1
 40
1
 10
37.402820
 20
11.804843
 30
0.0
 10
34.722864
 20
11.804844
 30
0.0
 10
32.550331
 20
13.977377
 30
0.0
 10
32.550330
 20
16.657333
 30
0.0
  0
SPLINE
  5
14a
100
AcDbEntity
  8
0
 62
1
100
AcDbSpline
 70
8
 71
3
 72
8
 73
4
 74
0
 40
0
 40
0
 40
0
 40
0
 40
1
 40
1
 40
1
 40
1
 10
32.550330
 20
16.657333
 30
0.0
 10
32.550331
 20
19.337289
 30
0.0
 10
34.722864
 20
21.509823
 30
0.0
 10
37.402820
 20
21.509823
 30
0.0
  0
SPLINE
  5
14b
100
AcDbEntity
  8
0
 62
1
100
AcDbSpline
 70
8
 71
3
 72
8
 73
4
 74
0
 40
0
 40
0
 40
0
 40
0
 40
1
 40
1
 40
1
 40
1
 10
37.402820
 20
21.509823
 30
0.0
 10
40.082776
 20
21.509823
 30
0.0
 10
42.255310
 20
19.337289
 30
0.0
 10
42.255310
 20
16.657333
 30
0.0
  0
LINE
  5
14c
100
AcDbEntity
  8
0
 62
1
100
AcDbLine
 10
42.255310
 20
16.657333
 30
0.0
 11
42.255310
 21
16.657333
 31
0.0
  0
SPLINE
  5
14d
100
AcDbEntity
  8
0
 62
1
100
AcDbSpline
 70
8
 71
3
 72
8
 73
4
 74
0
 40
0
 40
0
 40
0
 40
0
 40
1
 40
1
 40
1
 40
1
 10
59.958412
 20
16.615008
 30
0.0
 10
59.958412
 20
15.954727
 30
0.0
 10
59.696117
 20
15.321489
 30
0.0
 10
59.229228
 20
14.854599
 30
0.0
  0
SPLINE
  5
14e
100
AcDbEntity
  8
0
 62
1
100
AcDbSpline
 70
8
 71
3
 72
8
 73
4
 74
0
 40
0
 40
0
 40
0
 40
0
 40
1
 40
1
 40
1
 40
1
 10
59.229228
 20
14.854599
 30
0.0
 10
58.762339
 20
14.387710
 30
0.0
 10
58.129101
 20
14.125414
 30
0.0
 10
57.468820
 20
14.125414
 30
0.0
  0
SPLINE
  5
14f
100
AcDbEntity
  8
0
 62
1
100
AcDbSpline
 70
8
 71
3
 72
8
 73
4
 74
0
 40
0
 40
0
 40
0
 40
0
 40
1
 40
1
 40
1
 40
1
 10
57.468820
 20
14.125414
 30
0.0
 10
56.808539
 20
14.125413
 30
0.0
 10
56.175300
 20
14.387709
 30
0.0
 10
55.708411
 20
14.854598
 30
0.0
  0
SPLINE
  5
150
100
AcDbEntity
  8
0
 62
1
100
AcDbSpline
 70
8
 71
3
 72
8
 73
4
 74
0
 40
0
 40
0
 40
0
 40
0
 40
1
 40
1
 40
1
 40
1
 10
55.708411
 20
14.854598
 30
0.0
 10
55.241521
 20
15.321488
 30
0.0
 10
54.979226
 20
15.954726
 30
0.0
 10
54.979226
 20
16.615008
 30
0.0
  0
SPLINE
  5
151
100
AcDbEntity
  8
0
 62
1
100
AcDbSpline
 70
8
 71
3
 72
8
 73
4
 74
0
 40
0
 40
0
 40
0
 40
0
 40
1
 40
1
 40
1
 40
1
 10
54.979226
 20
16.615008
 30
0.0
 10
54.979226
 20
17.275289
 30
0.0
 10
55.241522
 20
17.908527
 30
0.0
 10
55.708412
 20
18.375416
 30
0.0
  0
SPLINE
  5
152
100
AcDbEntity
  8
0
 62
1
100
AcDbSpline
 70
8
 71
3
 72
8
 73
4
 74
0
 40
0
 40
0
 40
0
 40
0
 40
1
 40
1
 40
1
 40
1
 10
55.708412
 20
18.375416
 30
0.0
 10
56.175301
 20
18.842305
 30
0.0
 10
56.808539
 20
19.104600
 30
0.0
 10
57.468820
 20
19.104599
 30
0.0
  0
SPLINE
  5
153
100
AcDbEntity
  8
0
 62
1
100
AcDbSpline
 70
8
 71
3
 72
8
 73
4
 74
0
 40
0
 40
0
 40
0
 40
0
 40
1
 40
1
 40
1
 40
1
 10
57.468820
 20
19.104599
 30
0.0
 10
58.843783
 20
19.104599
 30
0.0
 10
59.958411
 20
17.989971
 30
0.0
 10
59.958412
 20
16.615008
 30
0.0
  0
LINE
  5
154
100
AcDbEntity
  8
0
 62
1
100
AcDbLine
 10
59.958412
 20
16.615008
 30
0.0
 11
59.958412
 21
16.615008
 31
0.0
  0
SPLINE
  5
155
100
AcDbEntity
  8
0
 62
1
100
AcDbSpline
 70
8
 71
3
 72
8
 73
4
 74
0
 40
0
 40
0
 40
0
 40
0
 40
1
 40
1
 40
1
 40
1
 10
119.078285
 20
74.135622
 30
0.0
 10
119.078284
 20
72.485666
 30
0.0
 10
117.740730
 20
71.148112
 30
0.0
 10
116.090774
 20
71.148112
 30
0.0
  0
SPLINE
  5
156
100
AcDbEntity
  8
0
 62
1
100
AcDbSpline
 70
8
 71
3
 72
8
 73
4
 74
0
 40
0
 40
0
 40
0
 40
0
 40
1
 40
1
 40
1
 40
1
 10
116.090774
 20
71.148112
 30
0.0
 10
114.440818
 20
71.148112
 30
0.0
 10
113.103264
 20
72.485666
 30
0.0
 10
113.103263
 20
74.135622
 30
0.0
  0
SPLINE
  5
157
100
AcDbEntity
  8
0
 62
1
100
AcDbSpline
 70
8
 71
3
 72
8
 73
4
 74
0
 40
0
 40
0
 40
0
 40
0
 40
1
 40
1
 40
1
 40
1
 10
113.103263
 20
74.135622
 30
0.0
 10
113.103263
 20
75.785579
 30
0.0
 10
114.440817
 20
77.123133
 30
0.0
 10
116.090774
 20
77.123133
 30
0.0
  0
SPLINE
  5
158
100
AcDbEntity
  8
0
 62
1
100
AcDbSpline
 70
8
 71
3
 72
8
 73
4
 74
0
 40
0
 40
0
 40
0
 40
0
 40
1
 40
1
 40
1
 40
1
 10
116.090774
 20
77.123133
 30
0.0
 10
117.740731
 20
77.123133
 30
0.0
 10
119.078285
 20
75.785579
 30
0.0
 10
119.078285
 20
74.135622
 30
0.0
  0
LINE
  5
159
100
AcDbEntity
  8
0
 62
1
100
AcDbLine
 10
119.078285
 20
74.135622
 30
0.0
 11
119.078285
 21
74.135622
 31
0.0
  0
SPLINE
  5
15a
100
AcDbEntity
  8
0
 62
1
100
AcDbSpline
 70
8
 71
3
 72
8
 73
4
 74
0
 40
0
 40
0
 40
0
 40
0
 40
1
 40
1
 40
1
 40
1
 10
119.069832
 20
24.601284
 30
0.0
 10
119.069831
 20
22.951327
 30
0.0
 10
117.732277
 20
21.613773
 30
0.0
 10
116.082321
 20
21.613773
 30
0.0
  0
SPLINE
  5
15b
100
AcDbEntity
  8
0
 62
1
100
AcDbSpline
 70
8
 71
3
 72
8
 73
4
 74
0
 40
0
 40
0
 40
0
 40
0
 40
1
 40
1
 40
1
 40
1
 10
116.082321
 20
21.613773
 30
0.0
 10
114.432364
 20
21.613773
 30
0.0
 10
113.094810
 20
22.951327
 30
0.0
 10
113.094810
 20
24.601284
 30
0.0
  0
SPLINE
  5
15c
100
AcDbEntity
  8
0
 62
1
100
AcDbSpline
 70
8
 71
3
 72
8
 73
4
 74
0
 40
0
 40
0
 40
0
 40
0
 40
1
 40
1
 40
1
 40
1
 10
113.094810
 20
24.601284
 30
0.0
 10
113.094809
 20
25.393621
 30
0.0
 10
113.409563
 20
26.153507
 30
0.0
 10
113.969831
 20
26.713775
 30
0.0
  0
SPLINE
  5
15d
100
AcDbEntity
  8
0
 62
1
100
AcDbSpline
 70
8
 71
3
 72
8
 73
4
 74
0
 40
0
 40
0
 40
0
 40
0
 40
1
 40
1
 40
1
 40
1
 10
113.969831
 20
26.713775
 30
0.0
 10
114.530098
 20
27.274042
 30
0.0
 10
115.289983
 20
27.588797
 30
0.0
 10
116.082321
 20
27.588797
 30
0.0
  0
SPLINE
  5
15e
100
AcDbEntity
  8
0
 62
1
100
AcDbSpline
 70
8
 71
3
 72
8
 73
4
 74
0
 40
0
 40
0
 40
0
 40
0
 40
1
 40
1
 40
1
 40
1
 10
116.082321
 20
27.588797
 30
0.0
 10
116.874658
 20
27.588797
 30
0.0
 10
117.634544
 20
27.274042
 30
0.0
 10
118.194811
 20
26.713775
 30
0.0
  0
SPLINE
  5
15f
100
AcDbEntity
  8
0
 62
1
100
AcDbSpline
 70
8
 71
3
 72
8
 73
4
 74
0
 40
0
 40
0
 40
0
 40
0
 40
1
 40
1
 40
1
 40
1
 10
118.194811
 20
26.713775
 30
0.0
 10
118.755078
 20
26.153507
 30
0.0
 10
119.069832
 20
25.393621
 30
0.0
 10
119.069832
 20
24.601284
 30
0.0
  0
LINE
  5
160
100
AcDbEntity
  8
0
 62
1
100
AcDbLine
 10
119.069832
 20
24.601284
 30
0.0
 11
119.069832
 21
24.601284
 31
0.0
  0
SPLINE
  5
161
100
AcDbEntity
  8
0
 62
1
100
AcDbSpline
 70
8
 71
3
 72
8
 73
4
 74
0
 40
0
 40
0
 40
0
 40
0
 40
1
 40
1
 40
1
 40
1
 10
95.447824
 20
24.601276
 30
0.0
 10
95.447824
 20
22.951319
 30
0.0
 10
94.110269
 20
21.613765
 30
0.0
 10
92.460313
 20
21.613765
 30
0.0
  0
SPLINE
  5
162
100
AcDbEntity
  8
0
 62
1
100
AcDbSpline
 70
8
 71
3
 72
8
 73
4
 74
0
 40
0
 40
0
 40
0
 40
0
 40
1
 40
1
 40
1
 40
1
 10
92.460313
 20
21.613765
 30
0.0
 10
90.810356
 20
21.613765
 30
0.0
 10
89.472802
 20
22.951319
 30
0.0
 10
89.472802
 20
24.601276
 30
0.0
  0
SPLINE
  5
163
100
AcDbEntity
  8
0
 62
1
100
AcDbSpline
 70
8
 71
3
 72
8
 73
4
 74
0
 40
0
 40
0
 40
0
 40
0
 40
1
 40
1
 40
1
 40
1
 10
89.472802
 20
24.601276
 30
0.0
 10
89.472802
 20
26.251233
 30
0.0
 10
90.810356
 20
27.588787
 30
0.0
 10
92.460313
 20
27.588787
 30
0.0
  0
SPLINE
  5
164
100
AcDbEntity
  8
0
 62
1
100
AcDbSpline
 70
8
 71
3
 72
8
 73
4
 74
0
 40
0
 40
0
 40
0
 40
0
 40
1
 40
1
 40
1
 40
1
 10
92.460313
 20
27.588787
 30
0.0
 10
94.110269
 20
27.588787
 30
0.0
 10
95.447824
 20
26.251233
 30
0.0
 10
95.447824
 20
24.601276
 30
0.0
  0
LINE
  5
165
100
AcDbEntity
  8
0
 62
1
100
AcDbLine
 10
95.447824
 20
24.601276
 30
0.0
 11
95.447824
 21
24.601276
 31
0.0
  0
SPLINE
  5
166
100
AcDbEntity
  8
0
 62
1
100
AcDbSpline
 70
8
 71
3
 72
8
 73
4
 74
0
 40
0
 40
0
 40
0
 40
0
 40
1
 40
1
 40
1
 40
1
 10
95.447824
 20
75.062600
 30
0.0
 10
95.447824
 20
73.412644
 30
0.0
 10
94.110269
 20
72.075089
 30
0.0
 10
92.460313
 20
72.075089
 30
0.0
  0
SPLINE
  5
167
100
AcDbEntity
  8
0
 62
1
100
AcDbSpline
 70
8
 71
3
 72
8
 73
4
 74
0
 40
0
 40
0
 40
0
 40
0
 40
1
 40
1
 40
1
 40
1
 10
92.460313
 20
72.075089
 30
0.0
 10
90.810356
 20
72.075089
 30
0.0
 10
89.472802
 20
73.412644
 30
0.0
 10
89.472802
 20
75.062600
 30
0.0
  0
SPLINE
  5
168
100
AcDbEntity
  8
0
 62
1
100
AcDbSpline
 70
8
 71
3
 72
8
 73
4
 74
0
 40
0
 40
0
 40
0
 40
0
 40
1
 40
1
 40
1
 40
1
 10
89.472802
 20
75.062600
 30
0.0
 10
89.472802
 20
76.712557
 30
0.0
 10
90.810356
 20
78.050112
 30
0.0
 10
92.460313
 20
78.050112
 30
0.0
  0
SPLINE
  5
169
100
AcDbEntity
  8
0
 62
1
100
AcDbSpline
 70
8
 71
3
 72
8
 73
4
 74
0
 40
0
 40
0
 40
0
 40
0
 40
1
 40
1
 40
1
 40
1
 10
92.460313
 20
78.050112
 30
0.0
 10
94.110269
 20
78.050112
 30
0.0
 10
95.447824
 20
76.712557
 30
0.0
 10
95.447824
 20
75.062600
 30
0.0
  0
LINE
  5
16a
100
AcDbEntity
  8
0
 62
1
100
AcDbLine
 10
95.447824
 20
75.062600
 30
0.0
 11
95.447824
 21
75.062600
 31
0.0
  0
SPLINE
  5
16b
100
AcDbEntity
  8
0
 62
1
100
AcDbSpline
 70
8
 71
3
 72
8
 73
4
 74
0
 40
0
 40
0
 40
0
 40
0
 40
1
 40
1
 40
1
 40
1
 10
53.189955
 20
26.683877
 30
0.0
 10
53.189955
 20
25.420357
 30
0.0
 10
52.165671
 20
24.396071
 30
0.0
 10
50.902150
 20
24.396070
 30
0.0
  0
SPLINE
  5
16c
100
AcDbEntity
  8
0
 62
1
100
AcDbSpline
 70
8
 71
3
 72
8
 73
4
 74
0
 40
0
 40
0
 40
0
 40
0
 40
1
 40
1
 40
1
 40
1
 10
50.902150
 20
24.396070
 30
0.0
 10
50.295386
 20
24.396070
 30
0.0
 10
49.713473
 20
24.637106
 30
0.0
 10
49.284426
 20
25.066153
 30
0.0
  0
SPLINE
  5
16d
100
AcDbEntity
  8
0
 62
1
100
AcDbSpline
 70
8
 71
3
 72
8
 73
4
 74
0
 40
0
 40
0
 40
0
 40
0
 40
1
 40
1
 40
1
 40
1
 10
49.284426
 20
25.066153
 30
0.0
 10
48.855379
 20
25.495200
 30
0.0
 10
48.614343
 20
26.077113
 30
0.0
 10
48.614343
 20
26.683877
 30
0.0
  0
SPLINE
  5
16e
100
AcDbEntity
  8
0
 62
1
100
AcDbSpline
 70
8
 71
3
 72
8
 73
4
 74
0
 40
0
 40
0
 40
0
 40
0
 40
1
 40
1
 40
1
 40
1
 10
48.614343
 20
26.683877
 30
0.0
 10
48.614343
 20
27.290642
 30
0.0
 10
48.855379
 20
27.872555
 30
0.0
 10
49.284426
 20
28.301602
 30
0.0
  0
SPLINE
  5
16f
100
AcDbEntity
  8
0
 62
1
100
AcDbSpline
 70
8
 71
3
 72
8
 73
4
 74
0
 40
0
 40
0
 40
0
 40
0
 40
1
 40
1
 40
1
 40
1
 10
49.284426
 20
28.301602
 30
0.0
 10
49.713473
 20
28.730649
 30
0.0
 10
50.295386
 20
28.971685
 30
0.0
 10
50.902150
 20
28.971684
 30
0.0
  0
SPLINE
  5
170
100
AcDbEntity
  8
0
 62
1
100
AcDbSpline
 70
8
 71
3
 72
8
 73
4
 74
0
 40
0
 40
0
 40
0
 40
0
 40
1
 40
1
 40
1
 40
1
 10
50.902150
 20
28.971684
 30
0.0
 10
52.165671
 20
28.971684
 30
0.0
 10
53.189955
 20
27.947398
 30
0.0
 10
53.189955
 20
26.683877
 30
0.0
  0
LINE
  5
171
100
AcDbEntity
  8
0
 62
1
100
AcDbLine
 10
53.189955
 20
26.683877
 30
0.0
 11
53.189955
 21
26.683877
 31
0.0
  0
SPLINE
  5
172
100
AcDbEntity
  8
0
 62
1
100
AcDbSpline
 70
8
 71
3
 72
8
 73
4
 74
0
 40
0
 40
0
 40
0
 40
0
 40
1
 40
1
 40
1
 40
1
 10
26.521645
 20
26.685364
 30
0.0
 10
26.521646
 20
26.078600
 30
0.0
 10
26.280610
 20
25.496688
 30
0.0
 10
25.851563
 20
25.067641
 30
0.0
  0
SPLINE
  5
173
100
AcDbEntity
  8
0
 62
1
100
AcDbSpline
 70
8
 71
3
 72
8
 73
4
 74
0
 40
0
 40
0
 40
0
 40
0
 40
1
 40
1
 40
1
 40
1
 10
25.851563
 20
25.067641
 30
0.0
 10
25.422517
 20
24.638594
 30
0.0
 10
24.840604
 20
24.397558
 30
0.0
 10
24.233840
 20
24.397557
 30
0.0
  0
SPLINE
  5
174
100
AcDbEntity
  8
0
 62
1
100
AcDbSpline
 70
8
 71
3
 72
8
 73
4
 74
0
 40
0
 40
0
 40
0
 40
0
 40
1
 40
1
 40
1
 40
1
 10
24.233840
 20
24.397557
 30
0.0
 10
23.627076
 20
24.397557
 30
0.0
 10
23.045164
 20
24.638593
 30
0.0
 10
22.616117
 20
25.067640
 30
0.0
  0
SPLINE
  5
175
100
AcDbEntity
  8
0
 62
1
100
AcDbSpline
 70
8
 71
3
 72
8
 73
4
 74
0
 40
0
 40
0
 40
0
 40
0
 40
1
 40
1
 40
1
 40
1
 10
22.616117
 20
25.067640
 30
0.0
 10
22.187070
 20
25.496688
 30
0.0
 10
21.946034
 20
26.078600
 30
0.0
 10
21.946034
 20
26.685364
 30
0.0
  0
SPLINE
  5
176
100
AcDbEntity
  8
0
 62
1
100
AcDbSpline
 70
8
 71
3
 72
8
 73
4
 74
0
 40
0
 40
0
 40
0
 40
0
 40
1
 40
1
 40
1
 40
1
 10
21.946034
 20
26.685364
 30
0.0
 10
21.946035
 20
27.948884
 30
0.0
 10
22.970321
 20
28.973169
 30
0.0
 10
24.233840
 20
28.973169
 30
0.0
  0
SPLINE
  5
177
100
AcDbEntity
  8
0
 62
1
100
AcDbSpline
 70
8
 71
3
 72
8
 73
4
 74
0
 40
0
 40
0
 40
0
 40
0
 40
1
 40
1
 40
1
 40
1
 10
24.233840
 20
28.973169
 30
0.0
 10
25.497360
 20
28.973168
 30
0.0
 10
26.521645
 20
27.948884
 30
0.0
 10
26.521645
 20
26.685364
 30
0.0
  0
LINE
  5
178
100
AcDbEntity
  8
0
 62
1
100
AcDbLine
 10
26.521645
 20
26.685364
 30
0.0
 11
26.521645
 21
26.685364
 31
0.0
  0
SPLINE
  5
179
100
AcDbEntity
  8
0
 62
1
100
AcDbSpline
 70
8
 71
3
 72
8
 73
4
 74
0
 40
0
 40
0
 40
0
 40
0
 40
1
 40
1
 40
1
 40
1
 10
70.943610
 20
38.208823
 30
0.0
 10
70.943610
 20
37.284851
 30
0.0
 10
70.576564
 20
36.398723
 30
0.0
 10
69.923217
 20
35.745376
 30
0.0
  0
SPLINE
  5
17a
100
AcDbEntity
  8
0
 62
1
100
AcDbSpline
 70
8
 71
3
 72
8
 73
4
 74
0
 40
0
 40
0
 40
0
 40
0
 40
1
 40
1
 40
1
 40
1
 10
69.923217
 20
35.745376
 30
0.0
 10
69.269870
 20
35.092029
 30
0.0
 10
68.383742
 20
34.724983
 30
0.0
 10
67.459770
 20
34.724983
 30
0.0
  0
SPLINE
  5
17b
100
AcDbEntity
  8
0
 62
1
100
AcDbSpline
 70
8
 71
3
 72
8
 73
4
 74
0
 40
0
 40
0
 40
0
 40
0
 40
1
 40
1
 40
1
 40
1
 10
67.459770
 20
34.724983
 30
0.0
 10
65.535699
 20
34.724984
 30
0.0
 10
63.975932
 20
36.284752
 30
0.0
 10
63.975933
 20
38.208823
 30
0.0
  0
SPLINE
  5
17c
100
AcDbEntity
  8
0
 62
1
100
AcDbSpline
 70
8
 71
3
 72
8
 73
4
 74
0
 40
0
 40
0
 40
0
 40
0
 40
1
 40
1
 40
1
 40
1
 10
63.975933
 20
38.208823
 30
0.0
 10
63.975932
 20
40.132894
 30
0.0
 10
65.535699
 20
41.692662
 30
0.0
 10
67.459770
 20
41.692663
 30
0.0
  0
SPLINE
  5
17d
100
AcDbEntity
  8
0
 62
1
100
AcDbSpline
 70
8
 71
3
 72
8
 73
4
 74
0
 40
0
 40
0
 40
0
 40
0
 40
1
 40
1
 40
1
 40
1
 10
67.459770
 20
41.692663
 30
0.0
 10
68.383742
 20
41.692663
 30
0.0
 10
69.269870
 20
41.325617
 30
0.0
 10
69.923217
 20
40.672270
 30
0.0
  0
SPLINE
  5
17e
100
AcDbEntity
  8
0
 62
1
100
AcDbSpline
 70
8
 71
3
 72
8
 73
4
 74
0
 40
0
 40
0
 40
0
 40
0
 40
1
 40
1
 40
1
 40
1
 10
69.923217
 20
40.672270
 30
0.0
 10
70.576564
 20
40.018923
 30
0.0
 10
70.943610
 20
39.132795
 30
0.0
 10
70.943610
 20
38.208823
 30
0.0
  0
LINE
  5
17f
100
AcDbEntity
  8
0
 62
1
100
AcDbLine
 10
70.943610
 20
38.208823
 30
0.0
 11
70.943610
 21
38.208823
 31
0.0
  0
SPLINE
  5
180
100
AcDbEntity
  8
0
 62
1
100
AcDbSpline
 70
8
 71
3
 72
8
 73
4
 74
0
 40
0
 40
0
 40
0
 40
0
 40
1
 40
1
 40
1
 40
1
 10
70.943610
 20
61.068815
 30
0.0
 10
70.943610
 20
60.144843
 30
0.0
 10
70.576564
 20
59.258715
 30
0.0
 10
69.923217
 20
58.605368
 30
0.0
  0
SPLINE
  5
181
100
AcDbEntity
  8
0
 62
1
100
AcDbSpline
 70
8
 71
3
 72
8
 73
4
 74
0
 40
0
 40
0
 40
0
 40
0
 40
1
 40
1
 40
1
 40
1
 10
69.923217
 20
58.605368
 30
0.0
 10
69.269870
 20
57.952021
 30
0.0
 10
68.383742
 20
57.584975
 30
0.0
 10
67.459770
 20
57.584975
 30
0.0
  0
SPLINE
  5
182
100
AcDbEntity
  8
0
 62
1
100
AcDbSpline
 70
8
 71
3
 72
8
 73
4
 74
0
 40
0
 40
0
 40
0
 40
0
 40
1
 40
1
 40
1
 40
1
 10
67.459770
 20
57.584975
 30
0.0
 10
65.535699
 20
57.584976
 30
0.0
 10
63.975932
 20
59.144744
 30
0.0
 10
63.975933
 20
61.068815
 30
0.0
  0
SPLINE
  5
183
100
AcDbEntity
  8
0
 62
1
100
AcDbSpline
 70
8
 71
3
 72
8
 73
4
 74
0
 40
0
 40
0
 40
0
 40
0
 40
1
 40
1
 40
1
 40
1
 10
63.975933
 20
61.068815
 30
0.0
 10
63.975932
 20
62.992886
 30
0.0
 10
65.535699
 20
64.552654
 30
0.0
 10
67.459770
 20
64.552655
 30
0.0
  0
SPLINE
  5
184
100
AcDbEntity
  8
0
 62
1
100
AcDbSpline
 70
8
 71
3
 72
8
 73
4
 74
0
 40
0
 40
0
 40
0
 40
0
 40
1
 40
1
 40
1
 40
1
 10
67.459770
 20
64.552655
 30
0.0
 10
68.383742
 20
64.552655
 30
0.0
 10
69.269870
 20
64.185609
 30
0.0
 10
69.923217
 20
63.532262
 30
0.0
  0
SPLINE
  5
185
100
AcDbEntity
  8
0
 62
1
100
AcDbSpline
 70
8
 71
3
 72
8
 73
4
 74
0
 40
0
 40
0
 40
0
 40
0
 40
1
 40
1
 40
1
 40
1
 10
69.923217
 20
63.532262
 30
0.0
 10
70.576564
 20
62.878915
 30
0.0
 10
70.943610
 20
61.992787
 30
0.0
 10
70.943610
 20
61.068815
 30
0.0
  0
LINE
  5
186
100
AcDbEntity
  8
0
 62
1
100
AcDbLine
 10
70.943610
 20
61.068815
 30
0.0
 11
70.943610
 21
61.068815
 31
0.0
  0
LINE
  5
187
100
AcDbEntity
  8
0
 62
7
100
AcDbLine
 10
0.024844
 20
49.000003
 30
0.0
 11
0.024844
 21
97.975159
 31
0.0
  0
LINE
  5
188
100
AcDbEntity
  8
0
 62
7
100
AcDbLine
 10
0.024844
 20
97.975159
 30
0.0
 11
61.617490
 21
97.975159
 31
0.0
  0
LINE
  5
189
100
AcDbEntity
  8
0
 62
7
100
AcDbLine
 10
61.617490
 20
97.975159
 30
0.0
 11
123.210137
 21
97.975159
 31
0.0
  0
LINE
  5
18a
100
AcDbEntity
  8
0
 62
7
100
AcDbLine
 10
123.210137
 20
97.975159
 30
0.0
 11
123.210137
 21
49.000003
 31
0.0
  0
LINE
  5
18b
100
AcDbEntity
  8
0
 62
7
100
AcDbLine
 10
123.210137
 20
49.000003
 30
0.0
 11
123.210137
 21
0.024847
 31
0.0
  0
LINE
  5
18c
100
AcDbEntity
  8
0
 62
7
100
AcDbLine
 10
123.210137
 20
0.024847
 30
0.0
 11
61.617490
 21
0.024847
 31
0.0
  0
LINE
  5
18d
100
AcDbEntity
  8
0
 62
7
100
AcDbLine
 10
61.617490
 20
0.024847
 30
0.0
 11
0.024844
 21
0.024847
 31
0.0
  0
LINE
  5
18e
100
AcDbEntity
  8
0
 62
7
100
AcDbLine
 10
0.024844
 20
0.024847
 30
0.0
 11
0.024844
 21
49.000003
 31
0.0
  0
ENDSEC
  0
SECTION
  2
OBJECTS
  0
DICTIONARY
  5
C
330
0
100
AcDbDictionary
  3
ACAD_GROUP
350
D
  3
ACAD_MLINESTYLE
350
17
  0
DICTIONARY
  5
D
330
C
100
AcDbDictionary
  0
DICTIONARY
  5
1A
330
C
100
AcDbDictionary
  0
DICTIONARY
  5
17
330
C
100
AcDbDictionary
  3
STANDARD
350
18
  0
DICTIONARY
  5
19
330
C
100
AcDbDictionary
  0
ENDSEC
  0
EOF
