<?xml version="1.0" encoding="UTF-8" standalone="no"?>
<!-- Created with Inkscape (http://www.inkscape.org/) -->

<svg
   xmlns:dc="http://purl.org/dc/elements/1.1/"
   xmlns:cc="http://creativecommons.org/ns#"
   xmlns:rdf="http://www.w3.org/1999/02/22-rdf-syntax-ns#"
   xmlns:svg="http://www.w3.org/2000/svg"
   xmlns="http://www.w3.org/2000/svg"
   xmlns:sodipodi="http://sodipodi.sourceforge.net/DTD/sodipodi-0.dtd"
   xmlns:inkscape="http://www.inkscape.org/namespaces/inkscape"
   version="1.1"
   id="svg2709"
   width="465.77002"
   height="370.39371"
   viewBox="0 0 465.77002 370.39371"
   sodipodi:docname="Front teensy v0.2 r1.svg"
   inkscape:version="0.92.2 5c3e80d, 2017-08-06">
  <metadata
     id="metadata2715">
    <rdf:RDF>
      <cc:Work
         rdf:about="">
        <dc:format>image/svg+xml</dc:format>
        <dc:type
           rdf:resource="http://purl.org/dc/dcmitype/StillImage" />
        <dc:title></dc:title>
      </cc:Work>
    </rdf:RDF>
  </metadata>
  <defs
     id="defs2713" />
  <sodipodi:namedview
     pagecolor="#ffffff"
     bordercolor="#666666"
     borderopacity="1"
     objecttolerance="10"
     gridtolerance="10"
     guidetolerance="10"
     inkscape:pageopacity="0"
     inkscape:pageshadow="2"
     inkscape:window-width="1920"
     inkscape:window-height="955"
     id="namedview2711"
     showgrid="false"
     inkscape:zoom="1.4142136"
     inkscape:cx="261.65756"
     inkscape:cy="176.63376"
     inkscape:window-x="40"
     inkscape:window-y="0"
     inkscape:window-maximized="0"
     inkscape:current-layer="svg2709"
     fit-margin-top="0"
     fit-margin-left="0"
     fit-margin-right="0"
     fit-margin-bottom="0" />
  <path
     style="fill:none;fill-opacity:1;stroke:#cb0000;stroke-width:0.17014419;stroke-miterlimit:4;stroke-dasharray:none;stroke-opacity:1"
     d="M 58.745123,62.636852 A 18.340124,18.340124 0 0 1 40.404999,80.976976 18.340124,18.340124 0 0 1 22.064875,62.636852 18.340124,18.340124 0 0 1 40.404999,44.296728 18.340124,18.340124 0 0 1 58.745123,62.636852 Z"
     id="circle9649" />
  <path
     style="fill:none;fill-opacity:1;stroke:#cb0000;stroke-width:0.17014419;stroke-miterlimit:4;stroke-dasharray:none;stroke-opacity:1"
     d="M 159.70511,62.636852 A 18.340124,18.340124 0 0 1 141.36499,80.976976 18.340124,18.340124 0 0 1 123.02487,62.636852 18.340124,18.340124 0 0 1 141.36499,44.296728 18.340124,18.340124 0 0 1 159.70511,62.636852 Z"
     id="circle9651" />
  <path
     style="fill:none;fill-opacity:1;stroke:#cb0000;stroke-width:0.07866994;stroke-miterlimit:4;stroke-dasharray:none;stroke-opacity:1"
     d="m 225.49448,62.796852 a 9.4094839,9.4094839 0 0 1 -9.40949,9.409484 9.4094839,9.4094839 0 0 1 -9.40948,-9.409484 9.4094839,9.4094839 0 0 1 9.40948,-9.409484 9.4094839,9.4094839 0 0 1 9.40949,9.409484 z"
     id="circle9655" />
  <path
     style="fill:none;fill-opacity:1;stroke:#cb0000;stroke-width:0.09217431;stroke-miterlimit:4;stroke-dasharray:none;stroke-opacity:1"
     d="m 201.12241,95.91433 a 8.6468258,8.6468258 0 0 1 -8.64682,8.64683 8.6468258,8.6468258 0 0 1 -8.64683,-8.64683 8.6468258,8.6468258 0 0 1 8.64683,-8.646826 8.6468258,8.6468258 0 0 1 8.64682,8.646826 z"
     id="circle9657" />
  <path
     style="fill:none;fill-opacity:1;stroke:#cb0000;stroke-width:0.09217431;stroke-miterlimit:4;stroke-dasharray:none;stroke-opacity:1"
     d="m 100.32306,95.91433 a 8.6468258,8.6468258 0 0 1 -8.646821,8.64683 8.6468258,8.6468258 0 0 1 -8.646826,-8.64683 8.6468258,8.6468258 0 0 1 8.646826,-8.646826 8.6468258,8.6468258 0 0 1 8.646821,8.646826 z"
     id="circle9659" />
  <path
     style="fill:none;fill-opacity:1;stroke:#cb0000;stroke-width:0.1221548;stroke-miterlimit:4;stroke-dasharray:none;stroke-opacity:1"
     d="M 59.813326,139.58243 A 13.167269,13.167269 0 0 1 46.646057,152.7497 13.167269,13.167269 0 0 1 33.478788,139.58243 13.167269,13.167269 0 0 1 46.646057,126.41516 13.167269,13.167269 0 0 1 59.813326,139.58243 Z"
     id="circle9661" />
  <path
     style="fill:none;fill-opacity:1;stroke:#cb0000;stroke-width:0.1221548;stroke-miterlimit:4;stroke-dasharray:none;stroke-opacity:1"
     d="m 164.13333,139.58244 a 13.167269,13.167269 0 0 1 -13.16727,13.16727 13.167269,13.167269 0 0 1 -13.16726,-13.16727 13.167269,13.167269 0 0 1 13.16726,-13.16727 13.167269,13.167269 0 0 1 13.16727,13.16727 z"
     id="circle9663" />
  <path
     style="fill:none;fill-opacity:1;stroke:#cb0000;stroke-width:0.1221548;stroke-miterlimit:4;stroke-dasharray:none;stroke-opacity:1"
     d="M 59.813326,225.98239 A 13.167269,13.167269 0 0 1 46.646057,239.14966 13.167269,13.167269 0 0 1 33.478788,225.98239 13.167269,13.167269 0 0 1 46.646057,212.81512 13.167269,13.167269 0 0 1 59.813326,225.98239 Z"
     id="circle9665" />
  <path
     style="fill:none;fill-opacity:1;stroke:#cb0000;stroke-width:0.1221548;stroke-miterlimit:4;stroke-dasharray:none;stroke-opacity:1"
     d="m 164.13333,225.98239 a 13.167269,13.167269 0 0 1 -13.16727,13.16727 13.167269,13.167269 0 0 1 -13.16726,-13.16727 13.167269,13.167269 0 0 1 13.16726,-13.16727 13.167269,13.167269 0 0 1 13.16727,13.16727 z"
     id="circle9667" />
  <path
     style="fill:none;fill-opacity:1;stroke:#cb0000;stroke-width:0.17014419;stroke-miterlimit:4;stroke-dasharray:none;stroke-opacity:1"
     d="M 58.745123,307.43686 A 18.340124,18.340124 0 0 1 40.404999,325.77698 18.340124,18.340124 0 0 1 22.064875,307.43686 18.340124,18.340124 0 0 1 40.404999,289.09674 18.340124,18.340124 0 0 1 58.745123,307.43686 Z"
     id="circle9692" />
  <path
     style="fill:none;fill-opacity:1;stroke:#cb0000;stroke-width:0.17014419;stroke-miterlimit:4;stroke-dasharray:none;stroke-opacity:1"
     d="m 159.70511,307.43686 a 18.340124,18.340124 0 0 1 -18.34012,18.34012 18.340124,18.340124 0 0 1 -18.34012,-18.34012 18.340124,18.340124 0 0 1 18.34012,-18.34012 18.340124,18.340124 0 0 1 18.34012,18.34012 z"
     id="circle9694" />
  <path
     style="fill:none;fill-opacity:1;stroke:#cb0000;stroke-width:0.07866994;stroke-miterlimit:4;stroke-dasharray:none;stroke-opacity:1"
     d="m 226.61447,307.59683 a 9.4094839,9.4094839 0 0 1 -9.40948,9.40949 9.4094839,9.4094839 0 0 1 -9.40949,-9.40949 9.4094839,9.4094839 0 0 1 9.40949,-9.40948 9.4094839,9.4094839 0 0 1 9.40948,9.40948 z"
     id="circle9696" />
  <path
     style="fill:none;fill-opacity:1;stroke:#cb0000;stroke-width:0.09440393;stroke-miterlimit:4;stroke-dasharray:none;stroke-opacity:1"
     d="M 450.05966,90.196083 A 11.291381,11.291381 0 0 1 438.76828,101.48746 11.291381,11.291381 0 0 1 427.4769,90.196083 11.291381,11.291381 0 0 1 438.76828,78.904702 11.291381,11.291381 0 0 1 450.05966,90.196083 Z"
     id="circle9698" />
  <path
     style="fill:none;fill-opacity:1;stroke:#cb0000;stroke-width:0.09440393;stroke-miterlimit:4;stroke-dasharray:none;stroke-opacity:1"
     d="m 450.02771,277.41248 a 11.291381,11.291381 0 0 1 -11.29138,11.29138 11.291381,11.291381 0 0 1 -11.29138,-11.29138 11.291381,11.291381 0 0 1 11.29138,-11.29139 11.291381,11.291381 0 0 1 11.29138,11.29139 z"
     id="circle9700" />
  <path
     style="fill:none;fill-opacity:1;stroke:#cb0000;stroke-width:0.09440393;stroke-miterlimit:4;stroke-dasharray:none;stroke-opacity:1"
     d="m 360.74768,277.41251 a 11.291381,11.291381 0 0 1 -11.29138,11.29138 11.291381,11.291381 0 0 1 -11.29138,-11.29138 11.291381,11.291381 0 0 1 11.29138,-11.29138 11.291381,11.291381 0 0 1 11.29138,11.29138 z"
     id="circle9702" />
  <path
     style="fill:none;fill-opacity:1;stroke:#cb0000;stroke-width:0.09440393;stroke-miterlimit:4;stroke-dasharray:none;stroke-opacity:1"
     d="M 360.74768,86.692543 A 11.291381,11.291381 0 0 1 349.4563,97.983924 11.291381,11.291381 0 0 1 338.16492,86.692543 11.291381,11.291381 0 0 1 349.4563,75.401162 11.291381,11.291381 0 0 1 360.74768,86.692543 Z"
     id="circle9704" />
  <path
     style="fill:none;fill-opacity:1;stroke:#cb0000;stroke-width:0.09217431;stroke-miterlimit:4;stroke-dasharray:none;stroke-opacity:1"
     d="m 201.0329,269.54126 a 8.6468258,8.6468258 0 0 1 -8.64682,8.64683 8.6468258,8.6468258 0 0 1 -8.64683,-8.64683 8.6468258,8.6468258 0 0 1 8.64683,-8.64683 8.6468258,8.6468258 0 0 1 8.64682,8.64683 z"
     id="circle9706" />
  <path
     style="fill:none;fill-opacity:1;stroke:#cb0000;stroke-width:0.09217431;stroke-miterlimit:4;stroke-dasharray:none;stroke-opacity:1"
     d="m 100.23929,269.53564 a 8.6468258,8.6468258 0 0 1 -8.646822,8.64683 8.6468258,8.6468258 0 0 1 -8.646826,-8.64683 8.6468258,8.6468258 0 0 1 8.646826,-8.64682 8.6468258,8.6468258 0 0 1 8.646822,8.64682 z"
     id="circle9708" />
  <path
     style="fill:none;fill-opacity:1;stroke:#cb0000;stroke-width:0.1221548;stroke-miterlimit:4;stroke-dasharray:none;stroke-opacity:1"
     d="m 268.13333,225.98241 a 13.167269,13.167269 0 0 1 -13.16727,13.16727 13.167269,13.167269 0 0 1 -13.16726,-13.16727 13.167269,13.167269 0 0 1 13.16726,-13.16727 13.167269,13.167269 0 0 1 13.16727,13.16727 z"
     id="circle9710" />
  <path
     style="fill:none;fill-opacity:1;stroke:#cb0000;stroke-width:0.1221548;stroke-miterlimit:4;stroke-dasharray:none;stroke-opacity:1"
     d="m 268.13333,139.58244 a 13.167269,13.167269 0 0 1 -13.16727,13.16727 13.167269,13.167269 0 0 1 -13.16726,-13.16727 13.167269,13.167269 0 0 1 13.16726,-13.16727 13.167269,13.167269 0 0 1 13.16727,13.16727 z"
     id="circle9712" />
  <path
     id="path9714"
     d="M 0.0939,185.19685 V 0.093897 H 232.885 465.67611 V 185.19685 370.2998 H 232.885 0.0939 Z"
     style="fill:none;stroke:#000000;stroke-width:0.18779463;stroke-miterlimit:4;stroke-dasharray:none;stroke-opacity:1"
     inkscape:connector-curvature="0" />
</svg>
